# xmcd
#
# Track frame offsets:
#	150
#	14602
#	30790
#	46295
#	62205
#	78022
#	96672
#	112302
#	130462
#	143455
#	159697
#	175025
#	190862
#	205217
#	223475
#
# Disc length: 3191 seconds
#
# Revision: 0
# Processed by: cddbd v1.5.2PL0 Copyright (c) Steve Scherf et al.
# Submitted via: dBpowerAMP V4.0
#
DISCID=d90c750f
DTITLE=Gly Galeano - 30 Grandes Exitos
DYEAR=1900
DGENRE=
TTITLE0=Frio de ausencia
TTITLE1=amor de primavera
TTITLE2=La distancia
TTITLE3=Bebiendo para olvidar
TTITLE4=Me lo habias prometido
TTITLE5=Fantasia del amor
TTITLE6=No volvere a casarme
TTITLE7=No hables de mi
TTITLE8=La cabaretera
TTITLE9=Corazon no te enamores
TTITLE10=Me dices que si, me dices que no
TTITLE11=El confiado
TTITLE12=El cantante
TTITLE13=Desesperados
TTITLE14=Por andariego y parrandero
EXTD=
EXTT0=
EXTT1=
EXTT2=
EXTT3=
EXTT4=
EXTT5=
EXTT6=
EXTT7=
EXTT8=
EXTT9=
EXTT10=
EXTT11=
EXTT12=
EXTT13=
EXTT14=
PLAYORDER=
